<svg width="88" height="89" viewBox="0 0 88 89" fill="none" xmlns="http://www.w3.org/2000/svg">
<g clip-path="url(#clip0)">
<!--<path d="M88 0.125H0V88.125H88V0.125Z" fill="white"/>-->
<path d="M26.026 38.1694L6.80823 74.3764L24.2597 72.7642L32.7061 88.1217L51.9238 51.9149L26.026 38.1694Z" fill="#E95454"/>
<path d="M28.227 77.579C28.7662 76.4207 28.2022 75.0367 27.0742 74.437L25.9682 73.8482C24.8621 73.2182 24.4412 71.8178 25.0437 70.6843C25.6545 69.5315 27.0906 69.0912 28.2434 69.702L31.3689 71.3611C32.3346 71.8728 33.5452 71.5014 34.0432 70.5302L34.1202 70.3816C34.6925 69.4654 34.3541 68.2548 33.4021 67.7514L24.0532 62.7907C22.9142 62.1855 22.3557 60.8071 22.8867 59.646C23.4727 58.4107 24.9529 57.9238 26.1442 58.5566L34.8162 63.1595C35.782 63.6712 36.9926 63.2998 37.5043 62.3341L37.5538 62.2075L37.5676 62.18C38.1206 61.1675 37.7326 59.8964 36.7119 59.3544L31.8476 56.7737C30.7086 56.1684 30.1501 54.79 30.6894 53.6152C31.2698 52.3936 32.7556 51.8929 33.9469 52.5257L39.3202 55.3788C40.3244 55.9126 41.5239 55.4668 42.0439 54.4543C42.0522 54.4406 42.0522 54.4406 42.0577 54.4268C42.0659 54.4131 42.0659 54.4131 42.0714 54.3994C42.619 53.4007 42.3163 52.1571 41.3094 51.626L35.5123 48.5501C34.387 47.9531 33.8286 46.5747 34.3596 45.4136C34.9456 44.1783 36.4258 43.6913 37.6171 44.3241L51.9183 51.9149L32.7006 88.1216L27.4043 78.4951C27.7454 78.264 28.0426 77.9779 28.227 77.579Z" fill="#ED6362"/>
<path d="M61.9745 38.1694L81.192 74.3764L63.7409 72.7642L55.2944 88.1217L36.0767 51.9149L61.9745 38.1694Z" fill="#ED6362"/>
<path d="M59.7733 77.5791C59.2341 76.4209 59.7981 75.0369 60.9261 74.4372L62.0321 73.8484C63.1382 73.2183 63.5591 71.8179 62.9566 70.6844C62.3458 69.5316 60.9096 69.0914 59.7568 69.7022L56.6314 71.3612C55.6656 71.8729 54.4551 71.5015 53.9571 70.5303L53.8801 70.3817C53.3078 69.4656 53.6462 68.255 54.5982 67.7515L63.9498 62.7882C65.0888 62.1829 65.6473 60.8045 65.1163 59.6435C64.5303 58.4081 63.0501 57.9212 61.8588 58.554L53.1867 63.1569C52.2211 63.6686 51.0105 63.2972 50.4987 62.3315L50.4492 62.2049L50.4355 62.1774C49.8824 61.1649 50.2703 59.8938 51.2911 59.3518L56.1554 56.7711C57.2944 56.1658 57.8529 54.7874 57.3137 53.6126C56.7331 52.3911 55.2475 51.8904 54.0562 52.5232L48.6774 55.3817C47.6731 55.9155 46.4736 55.4697 45.9536 54.4573C45.9454 54.4436 45.9454 54.4436 45.9399 54.4298C45.9316 54.4161 45.9316 54.4161 45.9261 54.4023C45.3786 53.4036 45.6812 52.16 46.6882 51.6289L52.4851 48.553C53.6104 47.956 54.169 46.5776 53.6379 45.4165C53.0519 44.1813 51.5717 43.6942 50.3804 44.327L36.0792 51.9179L55.297 88.125L60.5932 78.4981C60.2548 78.2642 59.9577 77.9781 59.7733 77.5791Z" fill="#E95454"/>
<path d="M44 64.3456C61.7341 64.3456 76.1103 49.9693 76.1103 32.2353C76.1103 14.5012 61.7341 0.125 44 0.125C26.266 0.125 11.8896 14.5012 11.8896 32.2353C11.8896 49.9693 26.266 64.3456 44 64.3456Z" fill="#FFCC5B"/>
<path d="M48.3551 28.5513H28.0065C26.4245 28.5513 25.1259 27.2528 25.1259 25.6708L25.1479 25.4727V25.4286C25.1259 23.7586 26.4878 22.394 28.1606 22.394H42.2637C44.1318 22.394 45.7826 21.01 45.8926 19.1392C45.9807 17.183 44.4207 15.5323 42.4618 15.5323H27.5223C25.8743 15.5323 24.6417 14.1484 24.6637 12.4976C24.6637 12.4756 24.6637 12.4756 24.6637 12.4536C24.6637 12.4316 24.6637 12.4316 24.6637 12.4096C24.6417 10.7615 25.8715 9.37484 27.5223 9.37484H43.1551C45.0012 9.37484 46.6519 7.99096 46.762 6.14209C46.8501 4.16392 45.2901 2.53516 43.3311 2.53516H31.8831C20.2093 7.34716 11.983 18.8256 11.983 32.2353C11.983 45.6451 20.2093 57.1208 31.8858 61.9272H46.4209C48.267 61.9272 49.9178 60.5433 50.0278 58.6944C50.1159 56.7163 48.5559 55.0903 46.597 55.0903L30.0617 55.0876C28.1111 55.0876 26.54 53.456 26.6446 51.4806C26.7409 49.6317 28.4027 48.2424 30.2543 48.2424H36.6648C38.5082 48.19 39.9966 46.6796 39.9966 44.8224C39.9966 42.9324 38.4587 41.3916 36.5658 41.3916H26.8482C25.2662 41.3916 23.9676 40.0957 23.9896 38.511V38.2689C23.8795 36.7089 25.1342 35.3883 26.6941 35.3883H48.1569C50.0251 35.3883 51.6759 34.0044 51.7859 32.1556C51.8739 30.1801 50.3112 28.5513 48.3551 28.5513Z" fill="#FDBC4B"/>
<path d="M44.0002 55.1537C31.3608 55.1537 21.0793 44.8693 21.0793 32.2327C21.0793 19.596 31.3608 9.31445 44.0002 9.31445C56.6397 9.31445 66.9212 19.5988 66.9212 32.2354C66.9212 44.8721 56.6397 55.1537 44.0002 55.1537Z" fill="#FFDB70"/>
<path opacity="0.2" d="M66.9212 32.2348C66.9212 20.0412 57.3412 10.0677 45.3152 9.37988H43.1803C41.7716 9.37988 40.5143 10.4364 40.429 11.8451C40.3629 13.3528 41.5515 14.5964 43.0455 14.5964L55.6574 14.5991C57.1458 14.5991 58.3426 15.8427 58.2629 17.3504C58.1885 18.7618 56.923 19.8211 55.5088 19.8211H50.6197C49.2139 19.8624 48.0776 21.0124 48.0776 22.4293C48.0776 23.871 49.2524 25.0457 50.694 25.0457H58.1061C59.3138 25.0457 60.3016 26.0362 60.285 27.2413V27.4228C60.3676 28.6142 59.4129 29.6184 58.2216 29.6184H41.8541C40.429 29.6184 39.1716 30.6749 39.0864 32.0836C39.0203 33.5912 40.2088 34.8348 41.7028 34.8348H57.2201C58.4279 34.8348 59.4157 35.8253 59.4157 37.0304L59.3992 37.1817V37.2147C59.4157 38.4886 58.3757 39.5285 57.1018 39.5285H46.3443C44.9191 39.5285 43.6617 40.5851 43.5764 42.0102C43.5104 43.5014 44.699 44.7615 46.1929 44.7615H57.5861C58.8434 44.7615 59.7816 45.818 59.7651 47.0753C59.7651 47.0919 59.7651 47.0919 59.7651 47.1084C59.7651 47.1248 59.7651 47.1248 59.7651 47.1414C59.7816 48.3987 58.8434 49.4552 57.5861 49.4552H45.6647C44.256 49.4552 42.9987 50.5117 42.9134 51.9204C42.8474 53.4308 44.0359 54.6716 45.5299 54.6716H48.6746C59.0828 52.5037 66.9212 43.2676 66.9212 32.2348Z" fill="white"/>
<path d="M60.0013 27.1591H48.8532L45.4057 16.5556C44.9628 15.1937 43.0341 15.1937 42.5912 16.5556L39.1466 27.1591H27.9984C26.5649 27.1591 25.9679 28.9942 27.1289 29.8361L36.1477 36.3897L32.7031 46.9931C32.2601 48.3551 33.8201 49.4886 34.9812 48.6467L43.9999 42.0931L53.0186 48.6467C54.1797 49.4886 55.7396 48.3551 55.2966 46.9931L51.8521 36.3897L60.8708 29.8361C62.0291 28.9942 61.4348 27.1591 60.0013 27.1591Z" fill="white"/>
</g>
<defs>
<clipPath id="clip0">
<rect width="88" height="88" fill="white" transform="translate(0 0.125)"/>
</clipPath>
</defs>
</svg>
