<svg width="100" height="114" viewBox="0 0 100 114" fill="none" xmlns="http://www.w3.org/2000/svg">
<g clip-path="url(#clip0)">
<!--<path d="M100 0.921875H0V113.922H100V0.921875Z" fill="white"/>-->
<path d="M85.6723 13.9658H14.2787C6.43735 13.9658 0.080658 20.328 0.080658 28.1761V99.6308C0.080658 107.479 6.43735 113.841 14.2787 113.841H85.6723C93.5136 113.841 99.8703 107.479 99.8703 99.6308V28.1761C99.8703 20.328 93.5136 13.9658 85.6723 13.9658Z" fill="white" stroke="#BDB9B9" stroke-width="0.25"/>
<path d="M0 28.176C0 20.2833 6.39281 13.885 14.2787 13.885H85.6723C93.5581 13.885 99.951 20.2833 99.951 28.176V36.7506H0V28.176Z" fill="#1B4E65"/>
<path d="M19.0935 29.0804V25.5305H23.2443V23.9227H19.0935V22.1092H23.3343V20.5015H17.2687V29.0804H19.0935ZM30.6759 29.0804V27.4726H26.4351V25.5305H30.5859V23.9227H26.4351V22.1092H30.6759V20.5015H24.6103V29.0804H30.6759ZM36.7544 29.0804C38.3864 29.0804 39.2475 28.0514 39.2475 26.7652C39.2475 25.6848 38.515 24.7973 37.6026 24.6559C38.4122 24.4886 39.0804 23.7684 39.0804 22.688C39.0804 21.5433 38.2451 20.5015 36.613 20.5015H32.1024V29.0804H36.7544ZM36.2147 23.9356H33.9272V22.0706H36.2147C36.8315 22.0706 37.217 22.4693 37.217 23.0095C37.217 23.5498 36.8315 23.9356 36.2147 23.9356ZM36.279 27.4983H33.9272V25.5047H36.279C36.9986 25.5047 37.3841 25.9678 37.3841 26.508C37.3841 27.1253 36.9729 27.4983 36.279 27.4983ZM47.5631 29.0804L45.6355 25.8134C46.5607 25.5948 47.5117 24.7845 47.5117 23.2667C47.5117 21.6719 46.4193 20.5015 44.6331 20.5015H40.6236V29.0804H42.4484V26.0321H43.785L45.4684 29.0804H47.5631ZM44.3632 24.4243H42.4484V22.1092H44.3632C45.0957 22.1092 45.6483 22.5465 45.6483 23.2667C45.6483 23.987 45.0957 24.4243 44.3632 24.4243ZM52.7494 29.2347C55.3581 29.2347 56.6175 27.7813 56.6175 25.6462V20.5015H54.7541V25.5948C54.7541 26.7909 54.073 27.6141 52.7494 27.6141C51.4258 27.6141 50.7318 26.7909 50.7318 25.5948V20.5015H48.8813V25.659C48.8813 27.7684 50.1407 29.2347 52.7494 29.2347ZM65.8729 29.0804L62.57 20.5015H60.2825L56.967 29.0804H59.0488L59.5886 27.6269H63.2639L63.7908 29.0804H65.8729ZM62.7628 26.0192H60.0897L61.4263 22.3279L62.7628 26.0192ZM73.6039 29.0804L71.6761 25.8134C72.6013 25.5948 73.5522 24.7845 73.5522 23.2667C73.5522 21.6719 72.46 20.5015 70.6735 20.5015H66.6639V29.0804H68.489V26.0321H69.8258L71.509 29.0804H73.6039ZM70.4039 24.4243H68.489V22.1092H70.4039C71.1361 22.1092 71.689 22.5465 71.689 23.2667C71.689 23.987 71.1361 24.4243 70.4039 24.4243ZM78.911 29.0804V25.569L82.1877 20.5015H80.1064L77.9987 23.9484L75.8652 20.5015H73.7839L77.0864 25.569V29.0804H78.911Z" fill="#F7F7F4"/>
<path d="M11.0659 101.775V45.3257" stroke="#8AD0DA" stroke-width="1.1066"/>
<path d="M22.4889 101.775V45.3257" stroke="#8AD0DA" stroke-width="1.1066"/>
<path d="M33.1979 101.775V45.3257" stroke="#8AD0DA" stroke-width="1.1066"/>
<path d="M44.6209 101.775V45.3257" stroke="#8AD0DA" stroke-width="1.1066"/>
<path d="M56.0439 101.775V45.3257" stroke="#8AD0DA" stroke-width="1.1066"/>
<path d="M67.8239 101.775V45.3257" stroke="#8AD0DA" stroke-width="1.1066"/>
<path d="M78.5329 101.775V45.3257" stroke="#8AD0DA" stroke-width="1.1066"/>
<path d="M89.9561 101.775V45.3257" stroke="#8AD0DA" stroke-width="1.1066"/>
<path d="M6.42532 48.5408H94.2394" stroke="#8AD0DA" stroke-width="1.1066"/>
<path d="M6.42532 61.4028H92.8116" stroke="#8AD0DA" stroke-width="1.1066"/>
<path d="M6.42532 73.5498H92.8116" stroke="#8AD0DA" stroke-width="1.1066"/>
<path d="M6.42532 86.4119H92.8116" stroke="#8AD0DA" stroke-width="1.1066"/>
<path d="M7.13922 98.5591H93.5258" stroke="#8AD0DA" stroke-width="1.1066"/>
<path d="M19.2763 63.9028C17.8069 65.5154 15.9637 67.2904 14.834 69.1572C14.4058 69.8649 13.5648 70.2162 13.5648 71.0485" stroke="#F47575" stroke-width="2.2132" stroke-linecap="round" stroke-linejoin="round"/>
<path d="M14.2787 64.6174C15.8547 66.1648 17.7663 67.2386 19.093 69.0066C19.4035 69.4205 19.615 70.0746 19.9902 70.3336" stroke="#F47575" stroke-width="2.2132" stroke-linecap="round" stroke-linejoin="round"/>
<path d="M30.6993 51.0427C29.2299 52.6553 27.3867 54.43 26.257 56.2968C25.8288 57.0045 24.9878 57.3557 24.9878 58.1882" stroke="#F47575" stroke-width="2.2132" stroke-linecap="round" stroke-linejoin="round"/>
<path d="M25.7018 51.7573C27.2777 53.305 29.1893 54.3785 30.516 56.1467C30.8265 56.5605 31.038 57.2144 31.4132 57.4738" stroke="#F47575" stroke-width="2.2132" stroke-linecap="round" stroke-linejoin="round"/>
<path d="M41.4084 51.7561C39.9389 53.3687 38.0957 55.1434 36.9661 57.0102C36.5378 57.7179 35.6968 58.0691 35.6968 58.9016" stroke="#F47575" stroke-width="2.2132" stroke-linecap="round" stroke-linejoin="round"/>
<path d="M36.4108 52.4705C37.9868 54.018 39.8983 55.0915 41.2251 56.8598C41.5355 57.2736 41.7471 57.9275 42.1223 58.1868" stroke="#F47575" stroke-width="2.2132" stroke-linecap="round" stroke-linejoin="round"/>
<path d="M19.2763 51.0427C17.8069 52.6553 15.9637 54.43 14.834 56.2968C14.4058 57.0045 13.5648 57.3557 13.5648 58.1882" stroke="#F47575" stroke-width="2.2132" stroke-linecap="round" stroke-linejoin="round"/>
<path d="M14.2787 51.7573C15.8547 53.305 17.7663 54.3785 19.093 56.1467C19.4035 56.5605 19.615 57.2144 19.9902 57.4738" stroke="#F47575" stroke-width="2.2132" stroke-linecap="round" stroke-linejoin="round"/>
<path d="M10.7527 1.53345H7.57573C6.56348 1.53345 5.74289 2.35474 5.74289 3.36786V23.9133C5.74289 24.9264 6.56348 25.7477 7.57573 25.7477H10.7527C11.7649 25.7477 12.5855 24.9264 12.5855 23.9133V3.36786C12.5855 2.35474 11.7649 1.53345 10.7527 1.53345Z" fill="#1B4E65" stroke="white" stroke-width="1.89394"/>
<path d="M91.6421 1.53345H88.4651C87.4529 1.53345 86.6323 2.35474 86.6323 3.36786V23.9133C86.6323 24.9264 87.4529 25.7477 88.4651 25.7477H91.6421C92.6543 25.7477 93.4749 24.9264 93.4749 23.9133V3.36786C93.4749 2.35474 92.6543 1.53345 91.6421 1.53345Z" fill="#1B4E65" stroke="white" stroke-width="1.89394"/>
</g>
<defs>
<clipPath id="clip0">
<rect width="100" height="113" fill="white" transform="translate(0 0.921875)"/>
</clipPath>
</defs>
</svg>
