<svg width="87" height="96" viewBox="0 0 87 96" fill="none" xmlns="http://www.w3.org/2000/svg">
<g clip-path="url(#clip0)">
<path d="M64.7526 24.5054H21.4028C14.1888 24.5054 8.341 30.3261 8.341 37.5061V65.8052C8.341 72.9853 14.1891 78.8059 21.4028 78.8059H27.6241C27.9201 78.8059 28.1599 79.0446 28.1599 79.3392V93.2988C28.1599 94.9491 30.1883 95.7495 31.3242 94.5464L46.0395 78.9738C46.1407 78.8666 46.2821 78.8059 46.4299 78.8059H64.7526C71.9665 78.8059 77.8144 72.9851 77.8144 65.8052V37.5061C77.8144 30.3261 71.9663 24.5054 64.7526 24.5054Z" fill="#8AD0DA"/>
<path opacity="0.3" d="M33.6552 73.9542C33.6552 73.644 33.423 73.3926 33.1364 73.3926H27.1136C20.1298 73.3926 14.4684 67.2632 14.4684 59.7022V29.9019C14.4684 28.6224 14.6311 27.3842 14.9343 26.2095C10.9957 28.4486 8.341 32.6688 8.341 37.5064V65.8054C8.341 72.9854 14.1891 78.8061 21.4028 78.8061H27.6241C27.9201 78.8061 28.1599 79.045 28.1599 79.3395V93.2991C28.1599 94.9495 30.1883 95.7498 31.3242 94.5468L33.6551 92.0801V73.9542H33.6552Z" fill="#504F4F"/>
<path d="M44.2576 0.697907L45.5857 4.95091H49.8831C50.0513 4.95092 50.2152 5.00633 50.3513 5.1092C50.4873 5.21208 50.5887 5.35715 50.6406 5.52362C50.6927 5.69008 50.6927 5.86939 50.6407 6.03587C50.5888 6.20234 50.4875 6.34742 50.3514 6.45033L46.8746 9.07905L48.2025 13.332C48.2546 13.4985 48.2547 13.6778 48.2026 13.8443C48.1507 14.0108 48.0493 14.1559 47.9132 14.2588C47.7772 14.3616 47.6132 14.417 47.445 14.417C47.2767 14.417 47.1128 14.3616 46.9768 14.2586L43.5001 11.6299L40.0234 14.2586C39.8873 14.3616 39.7234 14.417 39.5552 14.417C39.3869 14.417 39.223 14.3616 39.0869 14.2588C38.9508 14.1559 38.8494 14.0108 38.7975 13.8443C38.7455 13.6778 38.7456 13.4985 38.7976 13.332L40.1256 9.07879L36.6487 6.45007C36.5126 6.34716 36.4113 6.20207 36.3594 6.0356C36.3074 5.86913 36.3074 5.68981 36.3595 5.52335C36.4114 5.35689 36.5128 5.21182 36.6489 5.10894C36.7849 5.00606 36.9488 4.95065 37.117 4.95065H41.4144L42.7425 0.697641C42.7944 0.531166 42.8958 0.386099 43.0319 0.283229C43.168 0.18036 43.3319 0.12497 43.5001 0.125C43.6684 0.12503 43.8323 0.180477 43.9683 0.283394C44.1044 0.386311 44.2057 0.531415 44.2576 0.697907Z" fill="#FFEC83"/>
<path d="M24.2754 3.92885L25.3684 7.18061H28.9075C29.0459 7.18068 29.1808 7.22307 29.2928 7.30172C29.4048 7.38036 29.4882 7.49124 29.531 7.61845C29.5737 7.74567 29.5738 7.88271 29.5311 8.00995C29.4883 8.13719 29.4051 8.24811 29.2931 8.32682L26.4299 10.3359L27.5231 13.5876C27.5658 13.7149 27.5657 13.852 27.5229 13.9792C27.4801 14.1065 27.3966 14.2174 27.2845 14.296C27.1725 14.3746 27.0376 14.417 26.899 14.417C26.7605 14.417 26.6256 14.3746 26.5135 14.296L23.6504 12.2862L20.7872 14.296C20.6752 14.3745 20.5403 14.4169 20.4018 14.4169C20.2633 14.4168 20.1284 14.3745 20.0164 14.2959C19.9043 14.2172 19.821 14.1064 19.7781 13.9792C19.7352 13.852 19.7352 13.7149 19.7779 13.5876L20.871 10.3359L18.0079 8.32682C17.8959 8.24812 17.8126 8.13721 17.7699 8.00998C17.7271 7.88275 17.7272 7.74573 17.77 7.61851C17.8128 7.4913 17.8961 7.38043 18.0081 7.30177C18.1201 7.22312 18.255 7.1807 18.3934 7.18061H21.9324L23.0255 3.92885C23.0677 3.80081 23.1511 3.68908 23.2635 3.60981C23.3758 3.53052 23.5113 3.48779 23.6504 3.48779C23.7895 3.48779 23.9251 3.53052 24.0374 3.60981C24.1497 3.68908 24.233 3.80081 24.2754 3.92885Z" fill="#FFEC83"/>
<path d="M6.53685 9.81074L7.63 13.0631H11.1697C11.3081 13.0632 11.443 13.1056 11.555 13.1842C11.667 13.2629 11.7503 13.3738 11.7931 13.5011C11.8359 13.6283 11.836 13.7653 11.7932 13.8926C11.7505 14.0198 11.6672 14.1308 11.5552 14.2095L8.69198 16.2189L9.78513 19.4712C9.82779 19.5985 9.82771 19.7356 9.78488 19.8628C9.74206 19.9901 9.6586 20.101 9.5466 20.1796C9.4346 20.2582 9.29962 20.3006 9.16118 20.3006C9.02266 20.3007 8.88777 20.2583 8.77568 20.1797L5.91296 18.1707L3.0497 20.1807C2.93764 20.2594 2.80268 20.3018 2.66417 20.3018C2.52566 20.3018 2.3907 20.2594 2.27863 20.1808C2.16656 20.1021 2.08313 19.9912 2.04029 19.8639C1.99744 19.7367 1.99738 19.5996 2.04013 19.4723L3.13328 16.22L0.270025 14.2105C0.158063 14.1318 0.0747511 14.0208 0.0320195 13.8936C-0.010712 13.7664 -0.0106722 13.6293 0.0321332 13.502C0.0749386 13.3748 0.158314 13.2639 0.270322 13.1853C0.382329 13.1066 0.517226 13.0642 0.655694 13.0641H4.19538L5.28853 9.81183C5.33111 9.68429 5.41441 9.57307 5.52648 9.49413C5.63855 9.41527 5.77362 9.37264 5.9123 9.37256C6.05098 9.37247 6.18612 9.41476 6.29834 9.49354C6.41054 9.57223 6.49404 9.68328 6.53685 9.81074Z" fill="#FFEC83"/>
<path d="M63.9737 3.92678L65.0669 7.17885H68.6066C68.745 7.17895 68.8799 7.22136 68.9919 7.30003C69.1038 7.3787 69.1872 7.48958 69.23 7.61681C69.2728 7.74403 69.2728 7.88107 69.2301 8.00831C69.1874 8.13556 69.1041 8.24647 68.9921 8.32518L66.1289 10.3344L67.222 13.5865C67.2647 13.7138 67.2646 13.8509 67.2218 13.9781C67.1789 14.1053 67.0956 14.2162 66.9835 14.2948C66.8715 14.3734 66.7365 14.4158 66.5981 14.4158C66.4595 14.4159 66.3247 14.3735 66.2126 14.2949L63.3493 12.285L60.4866 14.2959C60.3745 14.3746 60.2396 14.417 60.101 14.417C59.9626 14.417 59.8276 14.3746 59.7155 14.296C59.6034 14.2174 59.52 14.1065 59.4772 13.9792C59.4343 13.852 59.4343 13.7148 59.477 13.5876L60.5702 10.3355L57.7069 8.32621C57.5949 8.2475 57.5116 8.13656 57.4689 8.00932C57.4262 7.88206 57.4262 7.745 57.469 7.61777C57.5118 7.49055 57.5952 7.37967 57.7072 7.30101C57.8192 7.22235 57.9541 7.17996 58.0926 7.17989H61.6317L62.7249 3.9278C62.7674 3.8001 62.8506 3.68871 62.9627 3.60964C63.0749 3.53057 63.21 3.48791 63.3489 3.48779C63.4878 3.48768 63.623 3.53011 63.7353 3.609C63.8476 3.68788 63.9311 3.79914 63.9737 3.92678Z" fill="#FFEC83"/>
<path d="M81.7116 9.81158L82.8048 13.0636H86.3446C86.4831 13.0637 86.6174 13.1061 86.7298 13.1848C86.8421 13.2634 86.9249 13.3743 86.9679 13.5016C87.011 13.6288 87.011 13.7658 86.9679 13.893C86.9249 14.0203 86.8421 14.1312 86.7298 14.2099L83.8668 16.2192L84.9602 19.4713C85.0024 19.5986 85.0024 19.7356 84.9593 19.8629C84.9171 19.9901 84.8335 20.101 84.7212 20.1796C84.6097 20.2582 84.4745 20.3006 84.336 20.3006C84.1975 20.3007 84.0626 20.2583 83.9505 20.1797L81.0873 18.1698L78.2245 20.1807C78.1124 20.2594 77.9775 20.3018 77.8389 20.3018C77.7005 20.3018 77.5655 20.2594 77.4534 20.1808C77.3414 20.1022 77.2579 19.9913 77.2151 19.864C77.1723 19.7367 77.1722 19.5996 77.2149 19.4723L78.3081 16.2203L75.4448 14.211C75.3328 14.1322 75.2496 14.0213 75.2068 13.8941C75.1641 13.7669 75.1642 13.6297 75.2069 13.5025C75.2497 13.3753 75.3331 13.2644 75.4451 13.1858C75.5571 13.1072 75.692 13.0647 75.8305 13.0646H79.3696L80.4628 9.81259C80.5053 9.68488 80.5886 9.57349 80.7007 9.49438C80.8128 9.41535 80.948 9.37264 81.0868 9.37256C81.2257 9.37247 81.3609 9.41485 81.4732 9.49379C81.5855 9.57265 81.669 9.68387 81.7116 9.81158Z" fill="#FFEC83"/>
<path d="M26.1844 45.6831H35.3374V61.6259H26.1844V45.6831Z" fill="#FB7560"/>
<path d="M55.9312 45.6835H46.7783V38.8509C46.7783 37.9448 46.4167 37.0759 45.773 36.4352C45.1293 35.7945 44.2563 35.4346 43.346 35.4346H41.0577L40.6373 38.3644C40.414 39.92 39.8152 41.3984 38.8921 42.6731C37.969 43.9478 36.7492 44.9807 35.3372 45.6835V61.6262L36.3743 62.3144C37.9361 63.3507 39.7711 63.9037 41.6481 63.9036H54.7871C55.394 63.9036 55.9761 63.6637 56.4052 63.2366C56.8344 62.8095 57.0754 62.2302 57.0754 61.6262C57.0754 61.0221 56.8344 60.4428 56.4052 60.0157C55.9761 59.5885 55.394 59.3486 54.7871 59.3486C55.394 59.3486 55.9761 59.1087 56.4052 58.6816C56.8344 58.2544 57.0754 57.6752 57.0754 57.0711C57.0754 56.4671 56.8344 55.8877 56.4052 55.4607C55.9761 55.0335 55.394 54.7936 54.7871 54.7936C55.394 54.7936 55.9761 54.5536 56.4052 54.1264C56.8344 53.6994 57.0754 53.12 57.0754 52.516C57.0754 51.912 56.8344 51.3327 56.4052 50.9055C55.9761 50.4785 55.394 50.2385 54.7871 50.2385H55.9312C56.5381 50.2385 57.1202 49.9986 57.5493 49.5714C57.9784 49.1443 58.2195 48.565 58.2195 47.9609C58.2195 47.3569 57.9784 46.7777 57.5493 46.3505C57.1202 45.9234 56.5381 45.6835 55.9312 45.6835Z" fill="#FFD2A8"/>
</g>
<defs>
<clipPath id="clip0">
<rect width="87" height="95" fill="white" transform="translate(0 0.125)"/>
</clipPath>
</defs>
</svg>
