<svg width="94" height="73" viewBox="0 0 94 73" fill="none" xmlns="http://www.w3.org/2000/svg">
<g clip-path="url(#clip0)">
<!--<path d="M94 0.125H0V72.125H94V0.125Z" fill="white"/>-->
<mask id="mask0" mask-type="alpha" maskUnits="userSpaceOnUse" x="0" y="0" width="94" height="73">
<path d="M94 0.125H0V72.125H94V0.125Z" fill="white"/>
</mask>
<g mask="url(#mask0)">
<path d="M43.1243 46.8613C43.1243 50.6581 42.3224 53.4926 40.7185 55.3647C39.1147 57.2368 36.6868 58.1728 33.435 58.1728C32.2894 58.1728 31.4213 58.1113 30.8309 57.9883V54.7187C31.5711 54.9033 32.3467 54.9955 33.1574 54.9955C34.5233 54.9955 35.6469 54.7978 36.5282 54.4023C37.4094 53.998 38.0836 53.3696 38.5507 52.5171C39.0177 51.6557 39.2865 50.4736 39.357 48.9706H39.1984C38.6872 49.7968 38.0968 50.3769 37.427 50.7109C36.7573 51.0449 35.9201 51.2119 34.9155 51.2119C33.2323 51.2119 31.906 50.6758 30.9367 49.6035C29.9673 48.5224 29.4826 47.0239 29.4826 45.1079C29.4826 43.0424 30.0686 41.4121 31.2407 40.2168C32.4216 39.0127 34.0254 38.4106 36.0523 38.4106C37.4799 38.4106 38.7269 38.7446 39.7932 39.4126C40.8683 40.0805 41.6923 41.0517 42.2651 42.3262C42.8379 43.5918 43.1243 45.1035 43.1243 46.8613ZM36.1316 41.6801C35.2856 41.6801 34.6247 41.9702 34.1488 42.5503C33.6729 43.1303 33.435 43.9653 33.435 45.0551C33.435 45.9868 33.6509 46.7251 34.0827 47.27C34.5145 47.8149 35.171 48.0874 36.0523 48.0874C36.8807 48.0874 37.5901 47.8193 38.1805 47.2831C38.7709 46.7383 39.0662 46.1142 39.0662 45.4111C39.0662 44.3652 38.7886 43.4819 38.2334 42.7612C37.687 42.0405 36.9864 41.6801 36.1316 41.6801ZM52.1924 45.5956C54.0607 45.5956 55.5456 46.1186 56.6471 47.1645C57.7575 48.2104 58.3127 49.643 58.3127 51.4624C58.3127 53.6157 57.6473 55.2724 56.3167 56.4326C54.9859 57.5927 53.0825 58.1728 50.6061 58.1728C48.4559 58.1728 46.7198 57.8257 45.3979 57.1313V53.6113C46.0941 53.9804 46.9049 54.2836 47.8302 54.5209C48.7555 54.7495 49.6324 54.8638 50.4608 54.8638C52.9547 54.8638 54.2017 53.8442 54.2017 51.8051C54.2017 49.8628 52.9106 48.8916 50.3286 48.8916C49.8615 48.8916 49.3459 48.9399 48.7819 49.0366C48.2179 49.1245 47.7597 49.2211 47.4072 49.3267L45.7813 48.4565L46.5083 38.6347H56.9908V42.0889H50.0906L49.7337 45.8725L50.1964 45.7802C50.7339 45.6572 51.3993 45.5956 52.1924 45.5956Z" fill="#504F4F"/>
<path d="M63.0767 53.8212C62.5232 53.8212 62.074 53.6131 61.7291 53.1972C61.3922 52.7811 61.2238 52.2331 61.2238 51.5532C61.2238 50.8731 61.3922 50.3251 61.7291 49.9092C62.074 49.4931 62.5232 49.2852 63.0767 49.2852C63.6302 49.2852 64.0793 49.4931 64.4243 49.9092C64.7691 50.3251 64.9416 50.8731 64.9416 51.5532C64.9416 52.2331 64.7691 52.7811 64.4243 53.1972C64.0793 53.6131 63.6302 53.8212 63.0767 53.8212ZM68.2143 49.3332H68.7317L62.9804 57.7332H62.4631L68.2143 49.3332ZM63.0767 53.4132C63.5018 53.4132 63.8427 53.2491 64.0994 52.9212C64.3561 52.5852 64.4844 52.1292 64.4844 51.5532C64.4844 50.9772 64.3561 50.5251 64.0994 50.1972C63.8427 49.8612 63.5018 49.6932 63.0767 49.6932C62.6596 49.6932 62.3227 49.8612 62.066 50.1972C61.8093 50.5332 61.681 50.9851 61.681 51.5532C61.681 52.1211 61.8093 52.5732 62.066 52.9092C62.3227 53.2452 62.6596 53.4132 63.0767 53.4132ZM68.1181 57.7812C67.5646 57.7812 67.1154 57.5731 66.7705 57.1572C66.4256 56.7411 66.2531 56.1931 66.2531 55.5132C66.2531 54.8331 66.4256 54.2851 66.7705 53.8692C67.1154 53.4531 67.5646 53.2452 68.1181 53.2452C68.6716 53.2452 69.1167 53.4531 69.4536 53.8692C69.7985 54.2851 69.971 54.8331 69.971 55.5132C69.971 56.1931 69.7985 56.7411 69.4536 57.1572C69.1167 57.5731 68.6716 57.7812 68.1181 57.7812ZM68.1181 57.3732C68.5352 57.3732 68.872 57.2052 69.1288 56.8692C69.3854 56.5332 69.5138 56.0811 69.5138 55.5132C69.5138 54.9451 69.3854 54.4932 69.1288 54.1572C68.872 53.8212 68.5352 53.6532 68.1181 53.6532C67.6929 53.6532 67.352 53.8212 67.0954 54.1572C66.8386 54.4851 66.7103 54.9372 66.7103 55.5132C66.7103 56.0892 66.8386 56.5452 67.0954 56.8812C67.352 57.2091 67.6929 57.3732 68.1181 57.3732Z" fill="#504F4F"/>
<path d="M10.3159 71.7314C9.13438 72.527 7.52322 72.2201 6.79174 70.9997C2.8802 64.4739 0.616991 57.0826 0.216509 49.4642C-0.229102 40.9874 1.64832 32.5495 5.64727 25.0562C9.64619 17.5631 15.6157 11.2974 22.915 6.93187C30.2143 2.56632 38.5678 0.265688 47.0789 0.276896C55.5901 0.288104 63.9375 2.61074 71.2252 6.99549C78.5133 11.3803 84.4661 17.6616 88.445 25.1653C92.4238 32.669 94.279 41.1118 93.8112 49.5875C93.3901 57.2048 91.1078 64.5901 87.1786 71.1056C86.4439 72.324 84.8324 72.6266 83.6525 71.828C82.4733 71.0292 82.174 69.4319 82.9005 68.2085C86.307 62.4705 88.287 55.9877 88.6563 49.3043C89.0729 41.7623 87.4222 34.2496 83.8811 27.5725C80.3407 20.8953 75.0434 15.3059 68.5585 11.4042C62.0736 7.50247 54.6457 5.4357 47.0721 5.42573C39.4986 5.41575 32.0653 7.46295 25.57 11.3476C19.0748 15.2322 13.7629 20.8076 10.2045 27.4754C6.64608 34.1432 4.97547 41.6516 5.372 49.1946C5.72338 55.879 7.68625 62.367 11.0778 68.1139C11.801 69.3392 11.4974 70.9358 10.3159 71.7314Z" fill="#D7D8D7"/>
<path d="M10.3159 71.7314C9.13438 72.527 7.52322 72.2201 6.79176 70.9997C3.47021 65.4582 1.33084 59.2818 0.519579 52.8578C-0.399367 45.581 0.411577 38.1908 2.88684 31.2845C5.36209 24.3782 9.43217 18.1498 14.768 13.1029C20.1039 8.05599 26.5557 4.33227 33.6017 2.2328C40.6478 0.133323 48.0903 -0.282958 55.3276 1.01761C62.5648 2.31819 69.3936 5.29911 75.2616 9.71934C81.1302 14.1395 85.8731 19.875 89.1067 26.462C91.9621 32.277 93.5698 38.6116 93.8406 45.0622C93.9007 46.4828 92.7223 47.6208 91.2965 47.602C89.8715 47.5832 88.739 46.4144 88.6698 44.9942C88.3946 39.3521 86.9688 33.8156 84.4706 28.7263C81.5927 22.865 77.3725 17.7613 72.1504 13.828C66.9287 9.89469 60.8521 7.24215 54.4121 6.08485C47.9721 4.92754 41.3494 5.29797 35.0795 7.16617C28.8096 9.03436 23.0686 12.3479 18.3205 16.8389C13.5725 21.3298 9.95075 26.8721 7.74814 33.0176C5.54557 39.1631 4.82396 45.7393 5.64168 52.2144C6.35169 57.8367 8.20491 63.2458 11.0778 68.1139C11.801 69.3392 11.4974 70.9358 10.3159 71.7314Z" fill="#69A08A"/>
</g>
</g>
<defs>
<clipPath id="clip0">
<rect width="94" height="72" fill="white" transform="translate(0 0.125)"/>
</clipPath>
</defs>
</svg>
