<svg width="138" height="122" viewBox="0 0 138 122" fill="none" xmlns="http://www.w3.org/2000/svg">
<g clip-path="url(#clip0)">
<path d="M90.7874 7.36072C90.5638 7.19036 88.4896 5.65204 84.7944 4.17176C80.0341 2.26451 74.5721 1.25635 68.9989 1.25635C63.4258 1.25635 57.9641 2.26451 53.2033 4.17176C49.5086 5.65204 47.4343 7.19036 47.2101 7.36098C46.085 8.21626 45.4246 9.54604 45.4246 10.9565V18.0505L49.9601 20.4688L54.4957 18.0505V13.5169C56.9849 12.2506 61.9625 10.2992 68.9987 10.2992C76.035 10.2992 81.0125 12.2506 83.5016 13.5169V18.0502L88.0374 20.4685L92.5731 18.0502V10.9565C92.5731 9.54579 91.913 8.21599 90.7874 7.36072Z" fill="#E8834D"/>
<path d="M45.4249 18.0505V23.043L49.9606 25.4613L54.4963 23.043V18.0505H45.4249Z" fill="#D66E41"/>
<path d="M92.573 18.0505H83.5024V23.043L88.0382 25.4613L92.573 23.043V18.0505Z" fill="#D66E41"/>
<path d="M3.5705 72.7842V112.953C3.5705 117.722 7.44825 121.588 12.2316 121.588H125.769C130.552 121.588 134.429 117.722 134.429 112.953V72.7842H3.5705Z" fill="#365E7D"/>
<path d="M3.5705 67.7916V72.7843C10.7659 78.4797 29.7829 89.536 69 89.536C108.217 89.536 127.234 78.4797 134.429 72.7841V67.7913H3.5705V67.7916Z" fill="#2B4D66"/>
<path d="M3.19448 64.9163C10.0905 70.5134 29.0811 81.9692 69 81.9692C108.919 81.9692 127.909 70.5134 134.805 64.9163C136.827 63.2756 138 58.3988 138 55.8001V31.6774C138 26.9088 134.122 23.043 129.339 23.043H8.66108C3.87774 23.043 0 26.9088 0 31.6774V55.8001C0 58.3988 1.173 63.2756 3.19448 64.9163Z" fill="#407093"/>
<path d="M134.805 62.4982C127.909 68.0953 108.919 79.5511 69 79.5511C29.0811 79.5511 10.0907 68.095 3.19448 62.4982C1.173 60.8575 0 58.3989 0 55.8003V60.793C0 63.3916 1.173 65.8503 3.19448 67.491C10.0905 73.088 29.0811 84.5438 69 84.5438C108.919 84.5438 127.909 73.088 134.805 67.491C136.827 65.8503 138 63.3916 138 60.793V55.8003C138 58.3989 136.827 60.8575 134.805 62.4982Z" fill="#365E7D"/>
<path d="M68.9992 92.8529C73.4799 92.8529 77.1121 89.5361 77.1121 82.3468V77.443C77.1121 75.8534 75.8195 74.5649 74.2251 74.5649H63.7733C62.1787 74.5649 60.8864 75.8537 60.8864 77.443V82.3476C60.886 89.5361 64.5185 92.8529 68.9992 92.8529Z" fill="#FFE27A"/>
<path d="M68.9992 90.4346C64.5185 90.4346 60.8864 86.8137 60.8864 82.3469V87.34C60.8864 91.8062 64.5185 95.4279 68.9992 95.4279C73.4799 95.4279 77.1121 91.8062 77.1121 87.34V82.3469C77.1121 86.8137 73.4799 90.4346 68.9992 90.4346Z" fill="#F9CF58"/>
</g>
<defs>
<clipPath id="clip0">
<rect width="138" height="121" fill="white" transform="translate(0 0.921875)"/>
</clipPath>
</defs>
</svg>
